<svg width="49" height="85" viewBox="0 0 49 85" fill="none" xmlns="http://www.w3.org/2000/svg">
<path d="M27.7628 22.7873C30.3228 22.7873 32.4914 23.1499 34.2687 23.875C36.0459 24.6002 37.7744 25.624 39.4541 26.9464C39.8729 27.3303 40.2744 27.5223 40.6584 27.5223C41.5117 27.5223 42.0924 26.2426 42.4006 23.6831H43.8726C43.6402 26.7118 43.4463 32.044 43.2907 39.6798H41.8187C41.5896 36.2671 41.0897 33.5797 40.319 31.6174C39.5483 29.6552 38.1737 28.0129 36.1953 26.6905C34.216 25.4107 32.2451 24.7709 30.2824 24.7709C25.8451 24.7709 22.687 26.9037 20.8081 31.1695C18.9292 35.4353 17.9294 40.5329 17.8086 46.4624C17.6878 52.3918 18.48 57.4894 20.1851 61.7552C21.8902 66.021 24.9614 68.1539 29.3988 68.1539C31.3614 68.1539 33.3585 67.514 35.3899 66.2343C37.4204 64.9972 38.8623 63.3335 39.7155 61.2433C40.5688 59.1531 41.1838 56.1883 41.5607 52.3491H43.0327C42.8702 60.3262 42.8426 65.8717 42.9498 68.9857H41.4778C41.3776 67.6206 41.2052 66.6608 40.9605 66.1063C40.7593 65.5091 40.4454 65.2105 40.0187 65.2105C39.6774 65.2105 39.2259 65.3811 38.6643 65.7224C36.7165 67.0874 34.8605 68.1325 33.0964 68.8577C31.3332 69.5402 29.2142 69.8815 26.7396 69.8815C21.9182 69.8815 17.7129 68.9644 14.1236 67.1301C10.5343 65.2958 7.77218 62.651 5.83723 59.1957C3.90314 55.6978 2.98519 51.5386 3.08337 46.7183C3.17895 42.0259 4.28766 37.8668 6.40952 34.2409C8.53137 30.615 11.4474 27.7996 15.1576 25.7946C18.8677 23.7897 23.0695 22.7873 27.7628 22.7873Z" fill="#263230"/>
<path d="M28.2244 23.5097C30.6184 23.5097 32.5459 23.7407 34.0069 24.2026C35.5107 24.6225 36.9688 25.2314 38.3813 26.0292C38.8384 26.2812 39.2333 26.4911 39.566 26.6591C39.9407 26.8271 40.2541 26.9111 40.5061 26.9111C40.8841 26.9111 41.1822 26.7011 41.4004 26.2812C41.6194 25.8193 41.8013 25.1054 41.9461 24.1396L43.3951 24.1396C43.1262 27.163 42.9213 32.286 42.7805 39.5087L41.3315 39.5087C41.2102 37.1151 40.7088 34.8266 39.8274 32.643C38.9459 30.4594 37.7207 28.6747 36.1517 27.289C34.5827 25.9033 32.7483 25.2104 30.6483 25.2104C28.7163 25.2104 27.152 25.7353 25.9556 26.7851C24.7599 27.7929 24.1441 29.2206 24.1081 31.0683C24.0802 32.496 24.3711 33.7348 24.9806 34.7846C25.5901 35.8344 26.4941 36.8632 27.6924 37.871C28.8916 38.8368 30.8584 40.2855 33.5927 42.2172C33.8423 42.3431 34.0704 42.4901 34.2771 42.6581C34.5259 42.826 34.7536 42.994 34.9603 43.162C37.2392 44.7577 39.0594 46.1854 40.4208 47.4452C41.7831 48.6629 42.8682 50.0907 43.6763 51.7284C44.5264 53.366 44.9305 55.2557 44.8888 57.3973C44.8356 60.1268 44.0136 62.4363 42.4227 64.326C40.8747 66.1736 38.7897 67.5593 36.1677 68.4832C33.5457 69.407 30.6597 69.8689 27.5097 69.8689C24.9477 69.8689 22.8098 69.6589 21.096 69.239C19.4241 68.8191 17.8602 68.2522 16.4041 67.5384C15.4916 66.9505 14.7833 66.6565 14.2793 66.6565C13.9013 66.6565 13.6028 66.8875 13.3838 67.3494C13.1656 67.7693 12.9841 68.4622 12.8393 69.428L11.3903 69.428C11.6139 66.5725 11.8166 60.4837 11.9984 51.1615L13.4474 51.1615C13.6439 56.1585 14.615 60.2107 16.3604 63.3182C18.1058 66.4256 20.8475 67.9793 24.5855 67.9793C26.8955 67.9793 28.7332 67.4334 30.0984 66.3416C31.5057 65.2498 32.2282 63.7381 32.2658 61.8064C32.3125 59.4129 31.5962 57.3763 30.117 55.6966C28.6805 53.9749 26.4078 52.0643 23.2987 49.9647C20.8114 48.285 18.8241 46.8153 17.3366 45.5555C15.8492 44.2958 14.6384 42.847 13.7044 41.2094C12.7711 39.5297 12.3258 37.598 12.3683 35.4145C12.4199 32.769 13.1769 30.5644 14.6393 28.8007C16.1025 26.9951 18.0182 25.6723 20.3866 24.8325C22.7978 23.9506 25.4104 23.5097 28.2244 23.5097Z" fill="#263230"/>
</svg>
